<svg width="102" height="102" viewBox="0 0 102 102" fill="none" xmlns="http://www.w3.org/2000/svg">
<path d="M51 66.6462C65.0833 66.6462 76.5 55.2295 76.5 41.1462C76.5 27.063 65.0833 15.6462 51 15.6462C36.9167 15.6462 25.5 27.063 25.5 41.1462C25.5 55.2295 36.9167 66.6462 51 66.6462Z" stroke="#b63334" stroke-width="3" stroke-linecap="round" stroke-linejoin="round"/>
<path d="M50.9999 56.4462C59.4499 56.4462 66.2999 49.5961 66.2999 41.1462C66.2999 32.6962 59.4499 25.8462 50.9999 25.8462C42.55 25.8462 35.7 32.6962 35.7 41.1462C35.7 49.5961 42.55 56.4462 50.9999 56.4462Z" stroke="#b63334" stroke-width="3" stroke-linecap="round" stroke-linejoin="round"/>
<path d="M66.2999 61.5461V87.0461L50.9977 79.3966L35.7 87.0461V61.5484" stroke="#b63334" stroke-width="3" stroke-linecap="round" stroke-linejoin="round"/>
</svg>
