<svg width="102" height="102" viewBox="0 0 102 102" fill="none" xmlns="http://www.w3.org/2000/svg">
<path d="M65.025 14.3711H36.975V28.3961H65.025V14.3711Z" stroke="#b63334" stroke-width="3" stroke-linecap="round" stroke-linejoin="round"/>
<path d="M65.0249 19.4712H76.2449C76.9889 19.4712 77.7023 19.7749 78.2284 20.3155C78.7544 20.8561 79.0499 21.5893 79.0499 22.3538V82.8886C79.0499 83.6531 78.7544 84.3863 78.2284 84.9269C77.7023 85.4675 76.9889 85.7712 76.2449 85.7712H25.755C25.011 85.7712 24.2976 85.4675 23.7715 84.9269C23.2455 84.3863 22.95 83.6531 22.95 82.8886V22.3538C22.95 21.5893 23.2455 20.8561 23.7715 20.3155C24.2976 19.7749 25.011 19.4712 25.755 19.4712H36.975" stroke="#b63334" stroke-width="3" stroke-linecap="round" stroke-linejoin="round"/>
<path d="M39.525 58.9961H62.475" stroke="#b63334" stroke-width="3" stroke-linecap="round" stroke-linejoin="round"/>
<path d="M39.525 47.5212H62.475" stroke="#b63334" stroke-width="3" stroke-linecap="round" stroke-linejoin="round"/>
</svg>
