<svg width="102" height="102" viewBox="0 0 102 102" fill="none" xmlns="http://www.w3.org/2000/svg">
<path d="M18.0322 47.5212H34.425V83.2212H18.0322C17.3076 83.2212 16.6127 82.9319 16.1003 82.4169C15.5879 81.9019 15.3 81.2034 15.3 80.4751V50.2674C15.3 49.5391 15.5879 48.8406 16.1003 48.3256C16.6127 47.8106 17.3076 47.5212 18.0322 47.5212V47.5212Z" stroke="#b63334" stroke-width="3" stroke-linecap="round" stroke-linejoin="round"/>
<path d="M34.425 47.1886L46.7144 22.7736C47.7336 20.7487 49.8623 19.3412 52.0074 20.0742C52.223 20.1479 52.4366 20.2282 52.6479 20.3151C54.002 20.8723 55.2324 21.689 56.2688 22.7185C57.3053 23.748 58.1274 24.9702 58.6883 26.3154C59.2492 27.6605 59.5379 29.1022 59.5379 30.5581V38.8734H81.1194C81.9107 38.8734 82.693 39.0405 83.4143 39.3638C84.1356 39.687 84.7794 40.1589 85.3031 40.7482C85.8268 41.3374 86.2183 42.0306 86.4517 42.7816C86.6852 43.5327 86.7551 44.3245 86.657 45.1044L82.4715 78.3653C82.3028 79.706 81.6469 80.9393 80.6272 81.8335C79.6075 82.7277 78.2941 83.2212 76.9339 83.2212H34.425" stroke="#b63334" stroke-width="3" stroke-linecap="round" stroke-linejoin="round"/>
</svg>
